<svg width="124" height="22" viewBox="0 0 124 22" fill="none" xmlns="http://www.w3.org/2000/svg">
<g clip-path="url(#clip0_115_32)">
<path d="M110.572 2.31085C110.908 1.47438 112.092 1.47438 112.428 2.31085L114.499 7.46782C114.642 7.82402 114.976 8.06691 115.359 8.09288L120.904 8.46882C121.803 8.5298 122.169 9.65599 121.477 10.2339L117.213 13.7971C116.918 14.0432 116.79 14.4362 116.884 14.8084L118.24 20.1977C118.46 21.0719 117.502 21.7679 116.738 21.2886L112.032 18.3338C111.707 18.1297 111.293 18.1297 110.968 18.3338L106.262 21.2886C105.498 21.7679 104.54 21.0719 104.76 20.1977L106.116 14.8084C106.21 14.4362 106.082 14.0432 105.787 13.7971L101.523 10.2339C100.831 9.65599 101.197 8.5298 102.096 8.46882L107.641 8.09288C108.024 8.06691 108.358 7.82402 108.501 7.46782L110.572 2.31085Z" fill="#CFCFCF"/>
<path d="M85.572 2.31085C85.9079 1.47438 87.0921 1.47438 87.428 2.31085L89.4989 7.46782C89.6419 7.82402 89.9762 8.06691 90.3592 8.09288L95.9037 8.46882C96.803 8.5298 97.1689 9.65599 96.4772 10.2339L92.2126 13.7971C91.918 14.0432 91.7903 14.4362 91.884 14.8084L93.2398 20.1977C93.4597 21.0719 92.5017 21.7679 91.7383 21.2886L87.0317 18.3338C86.7066 18.1297 86.2934 18.1297 85.9683 18.3338L81.2617 21.2886C80.4983 21.7679 79.5403 21.0719 79.7602 20.1977L81.116 14.8084C81.2097 14.4362 81.082 14.0432 80.7874 13.7971L76.5228 10.2339C75.8311 9.65599 76.197 8.5298 77.0963 8.46882L82.6408 8.09288C83.0238 8.06691 83.3581 7.82402 83.5011 7.46782L85.572 2.31085Z" fill="#CFCFCF"/>
<path d="M60.572 2.31085C60.9079 1.47438 62.0921 1.47438 62.428 2.31085L64.4989 7.46782C64.6419 7.82402 64.9762 8.06691 65.3592 8.09288L70.9037 8.46882C71.803 8.5298 72.1689 9.65599 71.4772 10.2339L67.2126 13.7971C66.918 14.0432 66.7903 14.4362 66.884 14.8084L68.2398 20.1977C68.4597 21.0719 67.5017 21.7679 66.7383 21.2886L62.0317 18.3338C61.7066 18.1297 61.2934 18.1297 60.9683 18.3338L56.2617 21.2886C55.4983 21.7679 54.5403 21.0719 54.7602 20.1977L56.116 14.8084C56.2097 14.4362 56.082 14.0432 55.7874 13.7971L51.5228 10.2339C50.8311 9.65599 51.197 8.5298 52.0963 8.46882L57.6408 8.09288C58.0238 8.06691 58.3581 7.82402 58.5011 7.46782L60.572 2.31085Z" fill="#FFD600"/>
<path d="M35.572 2.31085C35.9079 1.47438 37.0921 1.47438 37.428 2.31085L39.4989 7.46782C39.6419 7.82402 39.9762 8.06691 40.3592 8.09288L45.9037 8.46882C46.803 8.5298 47.1689 9.65599 46.4772 10.2339L42.2126 13.7971C41.918 14.0432 41.7903 14.4362 41.884 14.8084L43.2398 20.1977C43.4597 21.0719 42.5017 21.7679 41.7383 21.2886L37.0317 18.3338C36.7066 18.1297 36.2934 18.1297 35.9683 18.3338L31.2617 21.2886C30.4983 21.7679 29.5403 21.0719 29.7602 20.1977L31.116 14.8084C31.2097 14.4362 31.082 14.0432 30.7874 13.7971L26.5228 10.2339C25.8311 9.65599 26.197 8.5298 27.0963 8.46882L32.6408 8.09288C33.0238 8.06691 33.3581 7.82402 33.5011 7.46782L35.572 2.31085Z" fill="#FFD600"/>
<path d="M10.572 2.31085C10.9079 1.47438 12.0921 1.47438 12.428 2.31085L14.4989 7.46782C14.6419 7.82402 14.9762 8.06691 15.3592 8.09288L20.9037 8.46882C21.803 8.5298 22.1689 9.65599 21.4772 10.2339L17.2126 13.7971C16.918 14.0432 16.7903 14.4362 16.884 14.8084L18.2398 20.1977C18.4597 21.0719 17.5017 21.7679 16.7383 21.2886L12.0317 18.3338C11.7066 18.1297 11.2934 18.1297 10.9683 18.3338L6.26171 21.2886C5.4983 21.7679 4.54031 21.0719 4.76022 20.1977L6.11602 14.8084C6.20967 14.4362 6.08198 14.0432 5.78741 13.7971L1.52278 10.2339C0.831052 9.65599 1.19697 8.5298 2.0963 8.46882L7.64081 8.09288C8.02378 8.06691 8.35809 7.82402 8.50113 7.46782L10.572 2.31085Z" fill="#FFD600"/>
</g>
<defs>
<clipPath id="clip0_115_32">
<rect width="124" height="22" fill="white"/>
</clipPath>
</defs>
</svg>
