<svg width="156" height="43" viewBox="0 0 156 43" fill="none" xmlns="http://www.w3.org/2000/svg">
<circle cx="58" cy="21" r="17" fill="#B6B6B6"/>
<circle cx="58" cy="21" r="17" fill="#C5ABA3"/>
<circle cx="93.5" cy="21.5" r="12.5" fill="#D3D3D3"/>
<circle cx="93.5" cy="21.5" r="12.5" fill="#D7BDB5" fill-opacity="0.56"/>
<ellipse cx="121.5" cy="21.5" rx="9.5" ry="8.5" fill="#E6E2E2"/>
<ellipse cx="121.5" cy="21.5" rx="9.5" ry="8.5" fill="#D7BDB5" fill-opacity="0.41"/>
<path d="M35 21.5C35 26.1944 30.7467 30 25.5 30C20.2533 30 16 26.1944 16 21.5C16 16.8056 20.2533 13 25.5 13C30.7467 13 35 16.8056 35 21.5Z" fill="#E7E4E4"/>
<path d="M35 21.5C35 26.1944 30.7467 30 25.5 30C20.2533 30 16 26.1944 16 21.5C16 16.8056 20.2533 13 25.5 13C30.7467 13 35 16.8056 35 21.5Z" fill="#D7BDB5" fill-opacity="0.38"/>
<circle cx="5" cy="22" r="5" fill="#F9F4F4"/>
<circle cx="5" cy="22" r="5" fill="#D7BDB5" fill-opacity="0.26"/>
<path d="M147 21C147 23.7614 144.761 26 142 26C139.239 26 137 23.7614 137 21C137 18.2386 139.239 16 142 16C144.761 16 147 18.2386 147 21Z" fill="#EFEFEF"/>
<path d="M147 21C147 23.7614 144.761 26 142 26C139.239 26 137 23.7614 137 21C137 18.2386 139.239 16 142 16C144.761 16 147 18.2386 147 21Z" fill="#D7BDB5" fill-opacity="0.5"/>
</svg>
